<svg width="25" height="24" viewBox="0 0 25 24" fill="none" xmlns="http://www.w3.org/2000/svg">
<path d="M6.6875 21V19C6.6875 17.9391 7.10893 16.9217 7.85907 16.1716C8.60922 15.4214 9.62663 15 10.6875 15H14.6875C15.7484 15 16.7658 15.4214 17.5159 16.1716C18.2661 16.9217 18.6875 17.9391 18.6875 19V21M8.6875 7C8.6875 8.06087 9.10893 9.07828 9.85907 9.82843C10.6092 10.5786 11.6266 11 12.6875 11C13.7484 11 14.7658 10.5786 15.5159 9.82843C16.2661 9.07828 16.6875 8.06087 16.6875 7C16.6875 5.93913 16.2661 4.92172 15.5159 4.17157C14.7658 3.42143 13.7484 3 12.6875 3C11.6266 3 10.6092 3.42143 9.85907 4.17157C9.10893 4.92172 8.6875 5.93913 8.6875 7Z" stroke="white" stroke-width="2" stroke-linecap="round" stroke-linejoin="round"/>
</svg>
