<svg width="14" height="13" viewBox="0 0 14 13" fill="none" xmlns="http://www.w3.org/2000/svg">
<path d="M6.25681 0.496616C6.51745 -0.165539 7.48255 -0.165539 7.74319 0.496616L9.0063 3.70551C9.11877 3.99124 9.39438 4.1856 9.7091 4.20113L13.2435 4.37556C13.9729 4.41156 14.2711 5.30247 13.7029 5.7477L10.9491 7.90534C10.7039 8.09745 10.5986 8.41194 10.6806 8.70727L11.6019 12.024C11.792 12.7084 11.0112 13.259 10.3994 12.872L7.43435 10.9966C7.17034 10.8296 6.82966 10.8296 6.56565 10.9966L3.60059 12.872C2.98875 13.259 2.20798 12.7084 2.39808 12.024L3.31938 8.70727C3.40141 8.41194 3.29614 8.09745 3.05094 7.90534L0.297134 5.7477C-0.271113 5.30247 0.0271165 4.41156 0.75645 4.37556L4.2909 4.20113C4.60562 4.1856 4.88122 3.99124 4.99369 3.70551L6.25681 0.496616Z" fill="#101010"/>
</svg>
