<svg width="14" height="13" viewBox="0 0 14 13" fill="none" xmlns="http://www.w3.org/2000/svg">
<path d="M7.27794 0.679753L8.54105 3.88865C8.7279 4.36332 9.18013 4.67564 9.68445 4.70052L13.2189 4.87495C13.3641 4.88212 13.4519 4.96592 13.4857 5.06688C13.5189 5.16632 13.4982 5.27282 13.3945 5.35412L10.6407 7.51176C10.2399 7.82581 10.0616 8.34693 10.1989 8.84109L11.1202 12.1578C11.1516 12.2708 11.1113 12.372 11.0132 12.4411C10.9137 12.5113 10.7848 12.5241 10.6667 12.4494L7.70162 10.574C7.27438 10.3038 6.72562 10.3038 6.29838 10.574L3.33332 12.4494C3.21517 12.5241 3.08632 12.5113 2.98677 12.4411C2.88872 12.372 2.84845 12.2708 2.87984 12.1578L3.80114 8.84109C3.93841 8.34693 3.76015 7.82581 3.35931 7.51176L0.605508 5.35412C0.501751 5.27282 0.481055 5.16632 0.51434 5.06688C0.548136 4.96592 0.635855 4.88212 0.781096 4.87495L4.31555 4.70052C4.81987 4.67564 5.2721 4.36332 5.45895 3.88865L6.72206 0.679753C6.76703 0.565516 6.86999 0.5 7 0.5C7.13001 0.5 7.23297 0.565516 7.27794 0.679753Z" fill="white" stroke="#101010"/>
</svg>
