<svg width="55" height="50" viewBox="0 0 55 50" fill="none" xmlns="http://www.w3.org/2000/svg">
<path d="M17.524 0.16626C17.6222 0.142638 17.9782 0.0894877 18.3036 0.0540544C18.635 0.0186211 19.0769 -0.00500116 19.2856 0.000904399C19.5005 0.00680995 19.881 0.0245266 20.1327 0.0481488C20.3843 0.0658655 20.8263 0.130827 21.1148 0.195788C21.4033 0.254843 21.79 0.343427 21.9741 0.396577C22.1582 0.449727 22.3976 0.526499 22.4958 0.573743C22.594 0.626893 22.9255 0.774532 23.2324 0.904454C23.4739 1.00669 23.7876 1.1711 24.2125 1.43797C24.4508 1.58772 24.7383 1.64174 25.0124 1.57769V1.57769C25.2518 1.53044 25.485 1.47139 25.5341 1.45367C25.5382 1.45172 25.5425 1.44989 25.5469 1.44817C25.6473 1.40936 25.7708 1.44375 25.8595 1.3828V1.3828C25.8963 1.35328 26.3075 1.30603 26.7617 1.28241C27.3326 1.25288 27.7684 1.26469 28.1735 1.31784C28.4927 1.35918 28.7873 1.41233 28.818 1.43595C28.8487 1.45958 28.9714 1.49501 29.0819 1.51863C29.2231 1.54225 29.3274 1.52454 29.4502 1.44777C29.5423 1.38871 29.7264 1.28241 29.8614 1.21745C29.9965 1.15249 30.4139 0.987132 30.7821 0.845399C31.1504 0.709571 31.5126 0.573743 31.5801 0.544215C31.6476 0.514688 31.9115 0.443821 32.1632 0.37886C32.4149 0.313899 32.8998 0.213504 33.2373 0.160354C33.624 0.0953933 34.2072 0.0540544 34.8025 0.0540544C35.3611 0.0481488 35.9442 0.0835822 36.2143 0.130827C36.4659 0.172165 36.8772 0.260749 37.1227 0.319804C37.3621 0.37886 37.8347 0.567838 38.1662 0.733193C38.4915 0.898549 38.872 1.11115 39.0071 1.19973C39.1421 1.29422 39.4429 1.54816 39.6823 1.77257C39.9216 1.99698 40.2101 2.30407 40.3268 2.45762C40.4434 2.60525 40.6337 2.90053 40.7441 3.10132C40.8546 3.30802 41.051 3.80408 41.1799 4.21157C41.3273 4.66039 41.4439 5.16236 41.4807 5.48126C41.5114 5.77063 41.5237 6.27851 41.5114 6.60331C41.5053 6.92812 41.45 7.45962 41.4009 7.78443C41.3457 8.10923 41.272 8.47538 41.229 8.59939C41.1861 8.7175 41.137 8.8179 41.1124 8.8179C41.0817 8.8179 41.0633 8.87105 41.0633 8.93601C41.0633 9.00097 40.9958 9.26081 40.9099 9.50885C40.8239 9.76279 40.7196 10.0344 40.6766 10.1171C40.6398 10.1998 40.5784 10.2825 40.5416 10.3002C40.5048 10.3238 40.603 10.501 40.7687 10.7136C40.8737 10.8496 40.9654 10.9856 41.0176 11.0728C41.0521 11.1304 41.0453 11.2392 41.1124 11.2392V11.2392C41.137 11.2392 41.2106 11.3337 41.2781 11.4577C41.3457 11.5817 41.4193 11.6939 41.4377 11.7116C41.4561 11.7293 41.5175 11.8238 41.5666 11.9183C41.6219 12.0128 41.7508 12.2667 41.8551 12.4793C41.9595 12.6919 42.0454 12.8809 42.0454 12.9045C42.0454 12.9341 42.1129 13.0935 42.1927 13.2589C42.2725 13.4301 42.4075 13.7727 42.4935 14.0148C42.5794 14.2569 42.7083 14.7648 42.7758 15.1368C42.8618 15.5857 42.9047 16.0699 42.9047 16.5542C42.9047 16.9617 42.8618 17.5345 42.8127 17.8239C42.7574 18.1132 42.6653 18.5266 42.5978 18.7392C42.5364 18.9518 42.4014 19.2825 42.3093 19.4833C42.2173 19.6782 42.1068 19.879 42.07 19.9262C42.027 19.9735 41.9288 20.1388 41.8428 20.3042C41.7569 20.4637 41.6403 20.6408 41.585 20.6881V20.6881C41.5026 20.7586 41.5313 20.864 41.6398 20.8652C41.642 20.8652 41.6442 20.8652 41.6464 20.8652C41.7324 20.8652 41.941 20.9243 42.1068 20.9952C42.1407 21.0103 42.1735 21.0253 42.2042 21.0396C42.3509 21.1082 42.4543 21.2332 42.5671 21.3495V21.3495C42.6531 21.444 42.7635 21.627 42.8127 21.7629C42.8679 21.9046 42.9231 22.1231 42.9415 22.253C42.9661 22.383 42.9784 22.7727 42.9722 23.1212C42.9661 23.6704 42.9845 23.7826 43.0889 23.9361C43.1625 24.0424 43.2546 24.1074 43.3221 24.0956C43.3773 24.0897 43.4571 24.066 43.4878 24.0424C43.5185 24.0247 43.8807 23.9125 44.2858 23.7944C44.6909 23.6763 45.3538 23.4755 45.7589 23.3515C46.164 23.2215 46.7164 23.0739 46.9865 23.0208C47.3671 22.9381 47.631 22.9263 48.1527 22.9499C48.521 22.9735 48.9814 23.0267 49.1655 23.0739C49.3496 23.1271 49.6811 23.2865 49.9021 23.4282C50.123 23.57 50.4483 23.8593 50.6202 24.0601C50.7982 24.2668 50.9946 24.5444 51.056 24.6743C51.1235 24.8042 51.2279 25.0286 51.3015 25.1763C51.369 25.3239 51.5225 25.8259 51.6453 26.2983C51.7619 26.7708 51.903 27.4735 51.9522 27.8633C52.0013 28.2531 52.0626 28.7728 52.0872 29.0149C52.1056 29.257 52.124 29.7767 52.124 30.1665C52.124 30.5917 52.0811 31.0523 52.0197 31.3181C51.9644 31.5602 51.8478 31.9736 51.768 32.2334C51.6821 32.4933 51.5593 32.8063 51.4918 32.9244C51.4304 33.0484 51.3752 33.1783 51.3752 33.2078C51.3752 33.2374 51.2831 33.4086 51.1665 33.574C51.056 33.7452 50.9394 33.9283 50.9087 33.9815C50.878 34.0346 50.7737 34.1823 50.6693 34.3063C50.5711 34.4362 50.2765 34.7374 50.0248 34.9795C49.7732 35.2275 49.4663 35.4992 49.3496 35.5819C49.2429 35.6629 48.9308 35.8823 48.634 36.0909L48.5517 36.1488C48.2325 36.3732 47.8458 36.6212 47.6924 36.6921C47.5389 36.7689 47.1031 37.0228 46.7287 37.265C46.3481 37.5012 46.0044 37.7492 45.9737 37.8142C45.943 37.8791 45.9124 37.9913 45.9124 38.0622C45.9124 38.139 45.9492 38.2394 45.9921 38.2925C46.0351 38.3398 46.1886 38.4638 46.342 38.5642C46.4955 38.6646 46.9251 38.8949 47.2934 39.078C47.6617 39.261 48.2325 39.4913 48.5517 39.5858C48.8709 39.6803 49.3005 39.7866 49.5031 39.8221C49.7056 39.8634 49.9143 39.9047 49.9634 39.9225C50.0125 39.9402 50.2642 39.9638 50.5159 39.9756C50.7675 39.9874 51.369 40.0051 51.8478 40.011C52.3266 40.0228 52.7378 40.0524 52.7685 40.076C52.7931 40.0996 52.8913 40.1173 52.9895 40.1173C53.0815 40.1173 53.2718 40.1646 53.4191 40.2177C53.5603 40.2709 53.7567 40.3713 53.8611 40.4362C53.9654 40.5012 54.125 40.6252 54.2171 40.7079C54.3153 40.7906 54.4626 40.9855 54.5485 41.1508C54.6897 41.4107 54.702 41.4992 54.6774 41.889C54.6529 42.2138 54.5976 42.4205 54.4749 42.6567C54.3767 42.8339 54.2723 43.0111 54.2355 43.0465C54.1987 43.0819 53.99 43.2 53.769 43.3063C53.456 43.4599 53.2902 43.5012 53.0018 43.5071C52.6764 43.513 52.5905 43.4835 52.2836 43.2886C52.0872 43.1705 51.8785 43.0229 51.8233 42.9638C51.7619 42.9048 51.4918 42.7512 51.2217 42.6213C50.9517 42.4914 50.6632 42.3674 50.5772 42.3437C50.4913 42.326 50.2888 42.2906 50.1169 42.2788C49.9512 42.2611 49.5031 42.2197 49.1348 42.1843C48.7665 42.1489 48.1159 42.0544 47.6924 41.9776C47.2688 41.9008 46.8085 41.824 46.6673 41.8063C46.477 41.7827 46.4034 41.7945 46.4034 41.8418C46.4034 41.8831 46.477 42.0248 46.5753 42.1548C46.6735 42.2847 46.8208 42.45 46.9006 42.515C46.9804 42.5859 47.2013 42.7335 47.3855 42.8457C47.5696 42.9579 48.1896 43.2532 48.7665 43.5071C49.3435 43.7611 49.8959 44.0268 49.9941 44.0918C50.0923 44.1626 50.2703 44.3103 50.387 44.4225C50.4974 44.5406 50.6263 44.7178 50.6632 44.8123C50.7061 44.9067 50.743 45.0957 50.7552 45.2256C50.7614 45.3556 50.7246 45.5564 50.6754 45.6686C50.6263 45.7808 50.4974 45.9579 50.3808 46.0642C50.2703 46.1646 50.0801 46.2886 49.9634 46.3359C49.8407 46.3831 49.6258 46.4127 49.4601 46.4008C49.2944 46.389 49.0366 46.3182 48.877 46.2473C48.7174 46.1705 48.4596 45.9816 48.3062 45.8221C48.1527 45.6568 47.9195 45.4264 47.7844 45.2965C47.6494 45.1725 47.4162 45.0071 47.2627 44.9363C47.1093 44.8595 46.7655 44.7119 46.4955 44.5997C46.2254 44.4934 45.8817 44.3398 45.7282 44.263C45.5748 44.1804 45.3415 44.0445 45.2065 43.95C45.0714 43.8615 44.8934 43.7611 44.8075 43.7315C44.7216 43.6961 44.4638 43.5485 44.2244 43.3949C43.985 43.2355 43.672 43.0406 43.5185 42.952C43.3934 42.8846 43.2234 42.8015 42.9851 42.7122C42.9391 42.695 42.9025 42.7502 42.9354 42.7866V42.7866C43.0029 42.8634 43.1257 42.9874 43.2178 43.0701C43.3037 43.1528 43.6229 43.5248 43.9298 43.8969C44.2305 44.2689 44.6172 44.7768 44.7768 45.0189C44.9425 45.267 45.0837 45.5505 45.096 45.6686C45.1083 45.7926 45.0776 45.9579 45.0101 46.0819C44.9487 46.1942 44.8321 46.3123 44.7461 46.3418C44.6418 46.3772 44.4822 46.3595 44.2428 46.2946C43.985 46.2296 43.8131 46.1292 43.6167 45.952C43.4756 45.8103 43.2976 45.58 43.2239 45.4323C43.1564 45.2847 43.0827 45.0721 43.0643 44.9599C43.0336 44.8004 42.9109 44.641 42.5057 44.2689C42.2173 43.9973 41.8551 43.7138 41.6955 43.6371C41.5114 43.5544 41.2475 43.33 40.9958 43.0642C40.7748 42.8221 40.4986 42.4973 40.3759 42.3319C40.2592 42.1725 40.0996 41.9244 40.026 41.7886C39.9585 41.6469 39.8787 41.3693 39.8603 41.1685C39.8234 40.8732 39.848 40.7079 39.9585 40.3536C40.0321 40.1114 40.1856 39.7394 40.3022 39.5268C40.4127 39.3142 40.5109 39.1016 40.5109 39.0543C40.5109 39.0071 40.5293 38.9362 40.56 38.9067C40.5907 38.8772 40.6459 38.7413 40.6828 38.6114C40.7135 38.5031 40.7527 38.2839 40.8005 37.8409C40.8112 37.7419 40.6921 37.6851 40.6214 37.7551V37.7551C40.5109 37.8732 40.3759 38.0209 40.3268 38.0917C40.2777 38.1626 40.1058 38.3929 39.9462 38.6055C39.7805 38.8181 39.6516 39.013 39.6516 39.0425C39.6516 39.0661 39.5779 39.2256 39.4981 39.3969C39.4122 39.5681 39.314 39.9165 39.2772 40.1941C39.2403 40.4599 39.2281 40.8437 39.2465 41.0504C39.2772 41.328 39.3324 41.4933 39.4981 41.7414C39.6147 41.9185 39.713 42.078 39.713 42.0957C39.713 42.1134 39.8112 42.2611 39.9278 42.4205C40.0444 42.5859 40.1426 42.7512 40.1426 42.7926C40.1426 42.828 40.2285 42.9697 40.3329 43.0996C40.4372 43.2296 40.7687 43.7079 41.0756 44.1626C41.3825 44.6174 41.7324 45.1725 41.849 45.4028C41.9717 45.6331 42.1191 45.8812 42.1804 45.9638C42.2357 46.0465 42.2664 46.1292 42.2418 46.1528C42.2173 46.1764 42.2541 46.206 42.3216 46.2237C42.3891 46.2355 42.6101 46.2827 42.8127 46.3241C43.0766 46.3772 43.2423 46.4481 43.3835 46.578C43.494 46.6784 43.6229 46.8674 43.6658 46.9973C43.7211 47.1627 43.7334 47.3162 43.6965 47.517V47.517C43.6477 47.7614 43.4982 47.9663 43.3424 48.1608C43.3377 48.1667 43.3329 48.1726 43.3282 48.1784C43.2239 48.3083 43.0643 48.4619 42.9784 48.5209C42.8495 48.6036 42.7451 48.6213 42.5242 48.5977C42.3584 48.58 42.1682 48.5268 42.0945 48.4796C42.0147 48.4324 41.8551 48.3674 41.7385 48.332C41.6219 48.2965 41.4316 48.1843 41.3272 48.0898C41.2168 47.9894 41.0449 47.7887 40.9528 47.6351C40.8546 47.4757 40.6766 47.1154 40.5477 46.8201C40.4188 46.5249 40.2899 46.2296 40.2592 46.1587C40.2285 46.0819 40.1672 45.952 40.1303 45.8634C40.0874 45.7749 39.8725 45.4737 39.6516 45.1961C39.4306 44.9127 39.093 44.5465 38.9027 44.3811C38.7063 44.2099 38.4608 44.0327 38.3626 43.9855C38.2644 43.9382 38.1109 43.8969 38.0311 43.8969C37.9452 43.8969 37.8347 43.9441 37.7733 44.0032C37.7181 44.0563 37.6444 44.1685 37.6138 44.2512C37.5769 44.3339 37.5524 44.6351 37.5524 44.9304C37.5524 45.2256 37.5708 45.6331 37.6015 45.8457C37.626 46.0583 37.6567 46.2473 37.669 46.2768V46.2768C37.6884 46.3141 37.6984 46.3573 37.706 46.3986C37.7082 46.4106 37.7103 46.4235 37.712 46.4363C37.7242 46.4835 37.7795 46.6312 37.8409 46.7611C37.9022 46.891 38.0311 47.0918 38.1171 47.204C38.2091 47.3162 38.3442 47.5465 38.4301 47.706C38.5099 47.8713 38.5836 48.0426 38.5958 48.0898C38.6081 48.1371 38.6204 48.2847 38.6265 48.4146C38.6327 48.58 38.5897 48.7099 38.4854 48.8635C38.3994 48.9816 38.2337 49.1824 38.1171 49.3123C37.9698 49.4658 37.7672 49.5958 37.491 49.7021C37.2086 49.8084 36.957 49.8615 36.7237 49.8615C36.5273 49.8615 36.202 49.8143 35.9995 49.7552C35.7969 49.6902 35.5637 49.6076 35.4777 49.5603C35.3918 49.5131 35.2322 49.395 35.1217 49.3005C35.0051 49.206 34.8578 49.017 34.7903 48.8871C34.7227 48.7572 34.6491 48.5328 34.6307 48.3851C34.6123 48.2375 34.6368 47.9894 34.6798 47.8241C34.7227 47.6646 34.821 47.3989 34.8946 47.2335C34.9683 47.0741 35.0542 46.8851 35.0788 46.8201C35.1094 46.7552 35.134 46.6607 35.1463 46.6134C35.1585 46.5662 35.2077 46.4422 35.2568 46.3477C35.3059 46.2532 35.3918 45.9875 35.447 45.7571C35.5268 45.4501 35.5391 45.2197 35.5084 44.8713C35.49 44.6115 35.4409 44.3339 35.3979 44.2571C35.355 44.1804 35.2752 44.0859 35.2199 44.0504C35.1401 43.9973 35.0542 44.0209 34.8332 44.1331C34.6736 44.2158 34.4465 44.3752 34.3238 44.4874C34.2072 44.5997 33.9923 44.8654 33.845 45.078C33.7038 45.2906 33.4952 45.6981 33.3847 45.9934C33.2803 46.2886 33.09 46.6961 32.9673 46.9087C32.8445 47.1154 32.6235 47.4107 32.4701 47.5583C32.3166 47.706 32.0895 47.8713 31.9668 47.9304C31.8379 47.9835 31.6231 48.0308 31.488 48.0308C31.353 48.0308 31.1381 47.9835 31.0154 47.9186C30.8865 47.8595 30.6778 47.6942 30.5489 47.5524C30.5429 47.5459 30.5369 47.5393 30.531 47.5326C30.3453 47.327 30.1955 47.0935 30.1504 46.8202C30.1481 46.8065 30.1459 46.7926 30.1438 46.7788C30.1008 46.4658 30.1131 46.3536 30.2236 46.0583C30.3095 45.8221 30.4507 45.6154 30.6778 45.3969C30.8497 45.2197 31.0277 45.078 31.0584 45.078C31.089 45.078 31.1197 45.0485 31.1197 45.0189C31.1197 44.9894 31.488 44.5583 31.9361 44.0682C32.378 43.5839 32.8813 43.017 33.0409 42.8162C33.2067 42.6154 33.4031 42.3674 33.489 42.2729C33.5688 42.1784 33.7652 41.9244 33.9248 41.7118C34.0844 41.4992 34.1581 41.3693 34.0967 41.4166C34.0353 41.4638 33.9003 41.5524 33.7959 41.6114C33.6916 41.6646 33.5381 41.7414 33.4522 41.7827C33.3662 41.8181 33.1084 41.9363 32.8691 42.0366C32.6297 42.1429 32.286 42.2906 32.1018 42.3614C31.9177 42.4323 31.709 42.5209 31.6415 42.5445C31.5739 42.5741 31.1995 42.6744 30.8128 42.7689C30.4261 42.8634 29.7632 42.9815 29.3397 43.0347C28.9162 43.0937 28.3945 43.1587 28.1735 43.1823C27.9525 43.2118 27.4308 43.2296 27.0073 43.2237C26.5837 43.2178 26.1295 43.1941 25.9945 43.1705C25.8595 43.1469 25.5403 43.1174 25.2886 43.0996C25.037 43.0878 24.6196 43.0347 24.3679 42.9874C24.1163 42.9402 23.7787 42.8693 23.6191 42.8398C23.4534 42.8044 23.2078 42.7512 23.0667 42.7217C22.9193 42.6922 22.637 42.6154 22.4344 42.5504C22.2319 42.4855 22.0477 42.4441 22.0232 42.4559C21.9925 42.4678 21.9741 42.45 21.9741 42.4205C21.9741 42.391 21.9557 42.3733 21.9311 42.3851C21.9068 42.3991 21.8168 42.376 21.5785 42.2775C21.5159 42.2516 21.4567 42.3235 21.4953 42.3792V42.3792C21.5751 42.4796 21.6672 42.6095 21.7102 42.6567C21.747 42.704 21.9373 42.9225 22.1214 43.1469C22.3117 43.3654 22.4651 43.5544 22.4651 43.5721C22.4651 43.5898 22.502 43.6489 22.5511 43.7079C22.6002 43.7611 22.7904 43.9796 22.9685 44.1922C23.1526 44.4048 23.4534 44.7591 23.6436 44.9894C23.8278 45.2197 24.0978 45.5741 24.239 45.7867C24.4784 46.141 24.4968 46.2001 24.503 46.6134C24.5091 46.9323 24.4845 47.1036 24.4109 47.2335C24.3495 47.328 24.1899 47.5288 24.0426 47.6705C23.9014 47.8123 23.6743 47.9835 23.5393 48.0544C23.3429 48.1489 23.1833 48.1784 22.7659 48.1784C22.2871 48.1784 22.2196 48.1666 22.0171 48.019C21.8943 47.9245 21.7715 47.8064 21.747 47.7532C21.7286 47.6942 21.6795 47.6351 21.6549 47.6174C21.6242 47.5997 21.5813 47.5052 21.5628 47.4107C21.5506 47.3162 21.5199 47.0859 21.5015 46.9087C21.483 46.7316 21.4708 46.4894 21.4769 46.3772C21.4831 46.265 21.4339 46.0524 21.3787 45.9048C21.3235 45.7571 21.1639 45.4382 21.0288 45.1961C20.8938 44.954 20.6974 44.6646 20.593 44.5524C20.4948 44.4402 20.3107 44.263 20.1941 44.1508C20.0774 44.0445 19.9179 43.956 19.8442 43.956C19.746 43.956 19.6846 44.0032 19.6478 44.1213C19.6232 44.2099 19.6048 44.4638 19.6171 44.6941C19.6232 44.9245 19.6539 45.3851 19.6785 45.7276C19.703 46.0701 19.7276 46.7847 19.7276 47.3221C19.7337 48.1607 19.7153 48.3379 19.611 48.6095C19.5434 48.7808 19.4698 48.9166 19.4452 48.9166C19.4145 48.9166 19.3777 48.9757 19.3593 49.0524C19.3347 49.1233 19.2304 49.2946 19.1261 49.4363C19.0033 49.6076 18.8192 49.7493 18.5982 49.8497C18.3097 49.9855 18.1931 50.0091 17.7696 49.9973C17.4565 49.9914 17.1496 49.9442 16.9286 49.8674C16.6524 49.7729 16.5297 49.6902 16.3885 49.4954C16.2842 49.3536 16.2044 49.1942 16.2044 49.141C16.2044 49.082 16.1798 49.0229 16.143 49.0052C16.1061 48.9875 16.0877 48.7867 16.1 48.5328C16.1062 48.2906 16.1307 48.0898 16.1614 48.0898C16.1859 48.0898 16.1921 48.0603 16.1737 48.0308C16.1553 48.0013 16.2228 47.8064 16.3271 47.6056C16.4253 47.3989 16.542 47.1804 16.5849 47.1154C16.6279 47.0505 16.677 46.9855 16.7015 46.9678C16.72 46.9501 16.7936 46.8438 16.8673 46.7316C16.9409 46.6194 16.9962 46.4717 17.0023 46.4068C17.0023 46.3418 17.0269 46.2591 17.0637 46.2296C17.1005 46.2001 17.1496 45.893 17.1803 45.5504C17.211 45.2079 17.211 44.8004 17.1864 44.6351C17.1558 44.452 17.0944 44.3103 17.0207 44.263C16.9593 44.2217 16.8427 44.1922 16.7568 44.1922C16.6708 44.1922 16.4683 44.2749 16.3026 44.3811C16.1368 44.4874 15.8668 44.7237 15.701 44.9008C15.5353 45.078 15.2959 45.3733 15.1793 45.5504C15.0565 45.7276 14.9338 45.8812 14.9031 45.893C14.8785 45.8989 14.854 45.9579 14.854 46.0229C14.854 46.0879 14.8172 46.141 14.7803 46.141C14.7374 46.141 14.5901 46.3359 14.4612 46.5721C14.3323 46.8024 14.1052 47.1568 13.9701 47.3516C13.8289 47.5465 13.608 47.8772 13.4791 48.0898C13.2949 48.3851 13.1599 48.5209 12.896 48.6804C12.5952 48.8576 12.5031 48.8871 12.1533 48.8871C11.8893 48.8871 11.6806 48.8517 11.5395 48.7808C11.4228 48.7217 11.2633 48.5741 11.1835 48.456C11.1037 48.3379 11.0239 48.1312 11.0055 48.0013C10.987 47.8713 10.987 47.6705 11.0055 47.5583C11.03 47.4461 11.1405 47.2335 11.251 47.0859C11.3922 46.9087 11.5763 46.7611 11.8218 46.6489C12.0182 46.5544 12.2392 46.454 12.3067 46.4186C12.3742 46.3831 12.5338 46.3123 12.6627 46.2473C12.7855 46.1882 12.8898 46.1115 12.8898 46.0819C12.8898 46.0524 12.9267 45.9875 12.9696 45.952C13.0126 45.9107 13.1783 45.6922 13.3318 45.4619C13.4914 45.2316 13.6387 44.9953 13.6632 44.9304C13.6939 44.8654 13.8167 44.6469 13.9456 44.4461C14.0745 44.2394 14.1788 44.0622 14.1788 44.0445C14.1788 44.0268 14.2832 43.8615 14.4182 43.6784C14.5471 43.4894 14.7005 43.2414 14.7496 43.1292C14.8049 43.017 14.9522 42.6981 15.0872 42.4205C15.2161 42.1429 15.3757 41.7355 15.431 41.5051C15.4923 41.2748 15.5415 40.891 15.5353 40.6488C15.5353 40.3713 15.4862 40.0642 15.4064 39.8221C15.3328 39.6095 15.2039 39.3201 15.1179 39.1724C15.032 39.0248 14.8356 38.7295 14.676 38.5051C14.5225 38.2866 14.3691 38.1094 14.3323 38.1094C14.2954 38.1094 14.2893 38.2335 14.3139 38.4461C14.3384 38.635 14.4121 38.9894 14.4796 39.2315C14.5471 39.4736 14.7005 39.9579 14.8233 40.3122C14.9522 40.6843 15.0381 41.0563 15.0381 41.2276C15.0381 41.4284 14.9645 41.641 14.7865 42.0071C14.6514 42.2847 14.4366 42.6272 14.3139 42.7748C14.1911 42.9225 13.8351 43.3063 13.522 43.6311C13.2151 43.956 12.8653 44.3398 12.7487 44.4874C12.6382 44.6351 12.4479 44.889 12.3251 45.0485C12.2085 45.2138 12.0121 45.5268 11.8832 45.7571C11.7543 45.9875 11.564 46.2591 11.4597 46.3654C11.3492 46.4776 11.1528 46.6135 11.0177 46.6784C10.8581 46.7552 10.6433 46.7965 10.4039 46.7965C10.2014 46.7965 9.93745 46.7611 9.82082 46.7138C9.7042 46.6666 9.5753 46.5603 9.53234 46.4894C9.49551 46.4127 9.44641 46.3005 9.42799 46.2473C9.40958 46.1882 9.4464 46.0465 9.51392 45.9343C9.58144 45.8221 9.85765 45.5209 10.1277 45.2729C10.3978 45.0189 10.6556 44.7827 10.6924 44.7473C10.7354 44.7119 10.9625 44.4638 11.2019 44.1981C11.4413 43.9264 11.6622 43.6548 11.7052 43.5839C11.7482 43.513 11.7789 43.3831 11.785 43.2945C11.785 43.2 11.7482 43.1174 11.7113 43.1056C11.6684 43.0937 11.5088 43.1469 11.3553 43.2178C11.2019 43.2945 10.9318 43.4481 10.7599 43.5662C10.5819 43.6843 10.4223 43.7788 10.4039 43.7788C10.3855 43.7788 10.0786 43.9855 9.71648 44.2335C9.3482 44.4815 8.8326 44.8477 8.56253 45.0426C8.29246 45.2375 8.04694 45.4205 8.01011 45.4441C7.97328 45.4678 7.72776 45.6627 7.45769 45.8753C7.18761 46.0938 6.7334 46.4008 6.44491 46.5662C5.95387 46.8556 5.89863 46.8733 5.49352 46.8733C5.14979 46.8733 5.01476 46.8497 4.81834 46.7316C4.68331 46.6548 4.48075 46.5131 4.37027 46.4127C4.25364 46.3123 4.12475 46.1587 4.07564 46.0701C4.02654 45.9756 3.98971 45.7926 3.98971 45.6567C3.98971 45.4737 4.03881 45.3201 4.17385 45.1252C4.27206 44.9658 4.46234 44.7414 4.59737 44.6233C4.72627 44.4993 4.98407 44.3221 5.16207 44.2276C5.34621 44.139 5.56104 44.0386 5.64697 44.015C5.73291 43.9855 5.97843 43.8969 6.19939 43.8201C6.42036 43.7434 6.92982 43.513 7.33493 43.3122C7.74004 43.1174 8.20039 42.8575 8.36611 42.7453C8.5257 42.6331 8.75281 42.4146 8.86943 42.2611C8.98605 42.1016 9.08426 41.9185 9.08426 41.8477C9.08426 41.7296 9.05971 41.7177 8.88785 41.7473C8.77736 41.765 8.49501 41.8595 8.25563 41.9481C8.01625 42.0426 7.67252 42.1607 7.48838 42.2197C7.30424 42.2788 7.13237 42.3201 7.10782 42.3142C7.07713 42.3083 6.98506 42.3319 6.89299 42.3674C6.79478 42.4028 6.66588 42.4441 6.59837 42.45C6.53085 42.4618 6.18712 42.5209 5.83111 42.5859C5.47511 42.6508 5.03317 42.7217 4.84903 42.7453C4.66489 42.7689 4.11247 42.8634 3.62143 42.9579C3.13039 43.0524 2.55341 43.1823 2.33245 43.2473C2.11148 43.3122 1.78002 43.3654 1.59588 43.3654C1.35036 43.3595 1.15395 43.3122 0.890012 43.1941C0.687458 43.0996 0.441937 42.9343 0.343729 42.828C0.251659 42.7158 0.128898 42.5327 0.0859322 42.4205C0.0368281 42.3083 0 42.0957 0 41.9481C0 41.8004 0.0613801 41.5642 0.128898 41.4166C0.196416 41.2689 0.343729 41.0622 0.448075 40.9559C0.558559 40.8437 0.7427 40.7079 0.859322 40.6488C0.975944 40.5898 1.19691 40.5071 1.35036 40.4658C1.52837 40.4185 2.06851 40.389 2.85418 40.3831C3.87309 40.3772 4.16157 40.3536 4.57282 40.2532C4.84289 40.1882 5.16821 40.0878 5.29711 40.0347C5.3266 40.0219 5.35538 40.0101 5.38226 39.9997C5.48347 39.9602 5.60362 39.9453 5.70835 39.9166V39.9166C5.79429 39.8929 6.08277 39.7925 6.35284 39.6921C6.62292 39.5917 6.86844 39.4913 6.90527 39.4677C6.94209 39.4441 7.0403 39.4087 7.13851 39.3851C7.23058 39.3673 7.64183 39.1902 8.05921 39.0012C8.47046 38.8063 8.86329 38.6055 8.93081 38.5583C9.05357 38.4697 9.05357 38.4638 8.86943 38.2453C8.77122 38.1213 8.63005 37.9677 8.56253 37.8969C8.49501 37.826 8.16356 37.5779 7.82597 37.3417C7.48838 37.1114 7.04644 36.822 6.84389 36.7039C6.64133 36.5917 6.22395 36.3142 5.92318 36.0957C5.62242 35.8772 5.04545 35.3811 4.65262 34.9972C4.25978 34.6134 3.83012 34.1704 3.70122 34.0051C3.57232 33.8456 3.39432 33.6035 3.30225 33.4736C3.21018 33.3437 3.06287 33.0779 2.9708 32.883C2.87873 32.6882 2.78052 32.4342 2.74983 32.322C2.71914 32.2098 2.63321 31.82 2.56569 31.4657C2.46134 30.9519 2.43679 30.5799 2.43065 29.694C2.43065 28.761 2.44907 28.4539 2.56569 27.8633C2.64548 27.4735 2.76211 26.9539 2.82962 26.7117C2.89714 26.4696 3.05059 26.068 3.17335 25.8259C3.29611 25.5838 3.44343 25.2649 3.51094 25.1172C3.57846 24.9696 3.75033 24.692 3.8915 24.4971C4.03881 24.3023 4.33344 23.9834 4.55441 23.7885C4.76924 23.5936 5.10069 23.3633 5.28483 23.2747C5.46897 23.1861 5.73904 23.0857 5.89249 23.0503C6.04594 23.0089 6.34671 22.9853 6.56768 22.9912C6.78864 23.003 7.15692 23.0562 7.39631 23.1152C7.63569 23.1743 8.24335 23.3397 8.74667 23.4873C9.25613 23.6408 9.93131 23.8475 10.2505 23.9538C10.5697 24.0542 10.852 24.1723 10.8766 24.2019C10.9093 24.2412 10.9236 24.2412 10.9195 24.2019C10.9195 24.1664 10.9502 24.1723 10.9993 24.2078C11.0423 24.2491 11.1835 24.32 11.3124 24.3731C11.5333 24.4617 11.5456 24.4617 11.6868 24.3377C11.828 24.2019 11.828 24.1901 11.7482 23.7885C11.7052 23.5582 11.6868 23.2452 11.7052 23.0798C11.7236 22.9204 11.8034 22.6546 11.8771 22.4893C11.9507 22.3298 12.1164 22.0877 12.2515 21.9578C12.3865 21.8278 12.6013 21.6684 12.7241 21.6034C12.853 21.5385 12.9512 21.4676 12.9512 21.444C12.9512 21.4264 12.9949 21.4088 13.1212 21.3874C13.2886 21.3591 13.3731 21.1658 13.2704 21.0306V21.0306C13.1354 20.8593 12.9819 20.6113 12.9205 20.4814C12.8653 20.3514 12.718 20.068 12.6075 19.8495C12.4909 19.6251 12.4172 19.4479 12.4479 19.4479C12.4724 19.4479 12.4602 19.4243 12.4172 19.4007C12.3804 19.377 12.2883 19.1585 12.2146 18.9164C12.1471 18.6743 12.0305 18.1841 11.9569 17.8239C11.8648 17.3514 11.828 16.9262 11.828 16.2589C11.828 15.7569 11.8586 15.1309 11.9016 14.8711C11.9446 14.6112 12.0489 14.1329 12.1287 13.8081C12.2146 13.4833 12.3435 13.0876 12.4233 12.9223C12.5031 12.7628 12.6627 12.4262 12.7671 12.1841C12.8776 11.9419 13.0556 11.6289 13.1599 11.4872C13.3195 11.2746 13.3379 11.2156 13.2704 11.1329C13.2336 11.0797 13.1722 10.9793 13.1415 10.9144C13.1108 10.8494 13.0187 10.6486 12.9328 10.4715C12.853 10.2943 12.7364 9.99901 12.675 9.82184C12.6136 9.64468 12.5461 9.47341 12.5277 9.43798C12.5031 9.40255 12.4786 9.29625 12.4663 9.20176C12.454 9.10727 12.4233 9.00097 12.3988 8.96554C12.3681 8.9301 12.3006 8.65254 12.2453 8.34545C12.1778 7.98521 12.141 7.47143 12.141 6.89859C12.141 6.34938 12.1778 5.81788 12.2392 5.49898C12.2944 5.2096 12.362 4.93204 12.3988 4.87889C12.4295 4.81984 12.497 4.65448 12.5461 4.50684C12.6013 4.3592 12.6811 4.12889 12.7364 3.99306C12.7855 3.85133 12.9144 3.58558 13.0249 3.4025C13.1354 3.21353 13.3318 2.91825 13.4668 2.74699C13.5993 2.58628 13.7534 2.38398 13.8276 2.28646L13.8412 2.26864C13.9087 2.18005 14.185 1.92021 14.455 1.6958C14.7251 1.47139 15.1057 1.18792 15.3021 1.0639C15.4923 0.945793 15.8361 0.756815 16.0693 0.64461C16.2964 0.53831 16.6708 0.390671 16.9102 0.32571C17.1496 0.260749 17.4258 0.189882 17.524 0.16626Z" fill="#0057FF"/>
<path d="M14.9746 6.57931C14.9746 3.96185 17.1794 1.83998 19.8991 1.83998C22.6188 1.83998 24.8236 3.96185 24.8236 6.57931C24.8236 9.19678 22.6188 11.3187 19.8991 11.3187C17.1794 11.3187 14.9746 9.19678 14.9746 6.57931Z" fill="white"/>
<path d="M29.3425 6.57931C29.3425 3.96185 31.5473 1.83998 34.267 1.83998C36.9867 1.83998 39.1914 3.96185 39.1914 6.57931C39.1914 9.19678 36.9867 11.3187 34.267 11.3187C31.5473 11.3187 29.3425 9.19678 29.3425 6.57931Z" fill="white"/>
</svg>
