<svg width="33" height="30" viewBox="0 0 33 30" fill="none" xmlns="http://www.w3.org/2000/svg">
<path d="M10.5144 0.099756C10.5733 0.0855826 10.7869 0.0536926 10.9821 0.0324326C11.181 0.0111726 11.4462 -0.00300069 11.5714 0.000542639C11.7003 0.00408597 11.9286 0.014716 12.0796 0.0288893C12.2306 0.0395193 12.4958 0.078496 12.6689 0.117473C12.842 0.152906 13.074 0.206056 13.1845 0.237946C13.2949 0.269836 13.4386 0.315899 13.4975 0.344246C13.5564 0.376136 13.7553 0.464719 13.9394 0.542673C14.0843 0.604016 14.2726 0.702662 14.5275 0.862784C14.6705 0.952632 14.843 0.985044 15.0074 0.946613C15.1511 0.918266 15.291 0.882833 15.3205 0.872203C15.3229 0.871031 15.3255 0.869932 15.3281 0.868901C15.3884 0.845614 15.4625 0.866249 15.5157 0.829683C15.5378 0.811966 15.7845 0.783619 16.057 0.769446C16.3995 0.751729 16.661 0.758816 16.9041 0.790706C17.0956 0.815509 17.2724 0.847399 17.2908 0.861573C17.3092 0.875746 17.3829 0.897006 17.4491 0.911179C17.5338 0.925353 17.5965 0.914723 17.6701 0.868659C17.7254 0.833226 17.8358 0.769446 17.9169 0.730469C17.9979 0.691493 18.2483 0.592279 18.4693 0.507239C18.6903 0.425743 18.9075 0.344246 18.948 0.326529C18.9886 0.308813 19.1469 0.266293 19.2979 0.227316C19.4489 0.188339 19.7399 0.128103 19.9424 0.0962126C20.1744 0.057236 20.5243 0.0324326 20.8815 0.0324326C21.2167 0.0288893 21.5665 0.0501493 21.7286 0.078496C21.8796 0.103299 22.1263 0.156449 22.2736 0.191883C22.4173 0.227316 22.7008 0.340703 22.8997 0.439916C23.0949 0.539129 23.3232 0.666689 23.4042 0.719839C23.4853 0.776533 23.6657 0.928896 23.8094 1.06354C23.953 1.19819 24.1261 1.38244 24.1961 1.47457C24.266 1.56315 24.3802 1.74032 24.4465 1.86079C24.5128 1.98481 24.6306 2.28245 24.708 2.52694C24.7964 2.79623 24.8663 3.09742 24.8884 3.28876C24.9068 3.46238 24.9142 3.76711 24.9068 3.96199C24.9032 4.15687 24.87 4.47577 24.8405 4.67066C24.8074 4.86554 24.7632 5.08523 24.7374 5.15964C24.7116 5.2305 24.6822 5.29074 24.6675 5.29074C24.649 5.29074 24.638 5.32263 24.638 5.36161C24.638 5.40058 24.5975 5.55649 24.5459 5.70531C24.4944 5.85767 24.4318 6.02067 24.406 6.07027C24.3839 6.11988 24.347 6.16949 24.3249 6.18012C24.3029 6.19429 24.3618 6.30059 24.4612 6.42815C24.5242 6.50975 24.5792 6.59135 24.6106 6.64368C24.6313 6.67823 24.6272 6.74351 24.6675 6.74351C24.6822 6.74351 24.7264 6.8002 24.7669 6.87461C24.8074 6.94902 24.8516 7.01634 24.8626 7.02697C24.8737 7.0376 24.9105 7.0943 24.94 7.15099C24.9731 7.20768 25.0505 7.36005 25.1131 7.48761C25.1757 7.61517 25.2272 7.72855 25.2272 7.74273C25.2272 7.76044 25.2677 7.85611 25.3156 7.95533C25.3635 8.05808 25.4445 8.2636 25.4961 8.40887C25.5476 8.55415 25.625 8.85888 25.6655 9.0821C25.7171 9.3514 25.7428 9.64195 25.7428 9.9325C25.7428 10.177 25.7171 10.5207 25.6876 10.6943C25.6544 10.8679 25.5992 11.116 25.5587 11.2435C25.5219 11.3711 25.4408 11.5695 25.3856 11.69C25.3304 11.8069 25.2641 11.9274 25.242 11.9557C25.2162 11.9841 25.1573 12.0833 25.1057 12.1825C25.0541 12.2782 24.9842 12.3845 24.951 12.4128C24.9016 12.4551 24.9188 12.5184 24.9839 12.5191C24.9852 12.5191 24.9865 12.5191 24.9879 12.5191C25.0394 12.5191 25.1646 12.5546 25.2641 12.5971C25.2844 12.6062 25.3041 12.6152 25.3225 12.6238C25.4105 12.665 25.4726 12.7399 25.5403 12.8097C25.5918 12.8664 25.6581 12.9762 25.6876 13.0577C25.7207 13.1428 25.7539 13.2739 25.7649 13.3518C25.7797 13.4298 25.787 13.6636 25.7833 13.8727C25.7797 14.2022 25.7907 14.2695 25.8533 14.3617C25.8975 14.4255 25.9528 14.4644 25.9933 14.4573C26.0264 14.4538 26.0743 14.4396 26.0927 14.4255C26.1111 14.4148 26.3284 14.3475 26.5715 14.2766C26.8145 14.2058 27.2123 14.0853 27.4553 14.0109C27.6984 13.9329 28.0299 13.8443 28.1919 13.8125C28.4202 13.7628 28.5786 13.7558 28.8916 13.7699C29.1126 13.7841 29.3888 13.816 29.4993 13.8443C29.6098 13.8762 29.8087 13.9719 29.9412 14.0569C30.0738 14.142 30.269 14.3156 30.3721 14.4361C30.4789 14.5601 30.5968 14.7266 30.6336 14.8046C30.6741 14.8825 30.7367 15.0172 30.7809 15.1058C30.8214 15.1944 30.9135 15.4955 30.9872 15.779C31.0571 16.0625 31.1418 16.4841 31.1713 16.718C31.2008 16.9518 31.2376 17.2637 31.2523 17.4089C31.2634 17.5542 31.2744 17.866 31.2744 18.0999C31.2744 18.355 31.2486 18.6314 31.2118 18.7908C31.1787 18.9361 31.1087 19.1841 31.0608 19.3401C31.0092 19.496 30.9356 19.6838 30.8951 19.7546C30.8583 19.829 30.8251 19.907 30.8251 19.9247C30.8251 19.9424 30.7699 20.0452 30.6999 20.1444C30.6336 20.2471 30.5636 20.357 30.5452 20.3889C30.5268 20.4208 30.4642 20.5094 30.4016 20.5838C30.3427 20.6617 30.1659 20.8424 30.0149 20.9877C29.8639 21.1365 29.6798 21.2995 29.6098 21.3491C29.5458 21.3977 29.3585 21.5294 29.1804 21.6546L29.131 21.6893C28.9395 21.8239 28.7075 21.9727 28.6154 22.0153C28.5234 22.0613 28.2619 22.2137 28.0372 22.359C27.8089 22.5007 27.6026 22.6495 27.5842 22.6885C27.5658 22.7275 27.5474 22.7948 27.5474 22.8373C27.5474 22.8834 27.5695 22.9436 27.5953 22.9755C27.6211 23.0039 27.7131 23.0783 27.8052 23.1385C27.8973 23.1987 28.1551 23.3369 28.376 23.4468C28.597 23.5566 28.9395 23.6948 29.131 23.7515C29.3225 23.8082 29.5803 23.872 29.7019 23.8932C29.8234 23.918 29.9486 23.9428 29.9781 23.9535C30.0075 23.9641 30.1585 23.9783 30.3095 23.9854C30.4605 23.9925 30.8214 24.0031 31.1087 24.0066C31.3959 24.0137 31.6427 24.0314 31.6611 24.0456C31.6758 24.0598 31.7348 24.0704 31.7937 24.0704C31.8489 24.0704 31.9631 24.0987 32.0515 24.1306C32.1362 24.1625 32.254 24.2228 32.3166 24.2617C32.3792 24.3007 32.475 24.3751 32.5302 24.4247C32.5892 24.4743 32.6776 24.5913 32.7291 24.6905C32.8138 24.8464 32.8212 24.8995 32.8065 25.1334C32.7917 25.3283 32.7586 25.4523 32.6849 25.594C32.626 25.7003 32.5634 25.8066 32.5413 25.8279C32.5192 25.8492 32.394 25.92 32.2614 25.9838C32.0736 26.0759 31.9741 26.1007 31.8011 26.1043C31.6059 26.1078 31.5543 26.0901 31.3702 25.9732C31.2523 25.9023 31.1271 25.8137 31.094 25.7783C31.0571 25.7429 30.8951 25.6507 30.733 25.5728C30.571 25.4948 30.3979 25.4204 30.3463 25.4062C30.2948 25.3956 30.1732 25.3744 30.0701 25.3673C29.9707 25.3566 29.7019 25.3318 29.4809 25.3106C29.2599 25.2893 28.8695 25.2326 28.6154 25.1866C28.3613 25.1405 28.0851 25.0944 28.0004 25.0838C27.8862 25.0696 27.842 25.0767 27.842 25.1051C27.842 25.1299 27.8862 25.2149 27.9451 25.2929C28.0041 25.3708 28.0925 25.47 28.1403 25.509C28.1882 25.5515 28.3208 25.6401 28.4313 25.7074C28.5418 25.7747 28.9137 25.9519 29.2599 26.1043C29.6061 26.2566 29.9375 26.4161 29.9965 26.4551C30.0554 26.4976 30.1622 26.5862 30.2322 26.6535C30.2985 26.7244 30.3758 26.8307 30.3979 26.8874C30.4237 26.944 30.4458 27.0574 30.4531 27.1354C30.4568 27.2133 30.4347 27.3338 30.4053 27.4011C30.3758 27.4685 30.2985 27.5748 30.2285 27.6385C30.1622 27.6988 30.048 27.7732 29.9781 27.8015C29.9044 27.8299 29.7755 27.8476 29.6761 27.8405C29.5766 27.8334 29.422 27.7909 29.3262 27.7484C29.2304 27.7023 29.0758 27.5889 28.9837 27.4933C28.8916 27.3941 28.7517 27.2559 28.6707 27.1779C28.5896 27.1035 28.4497 27.0043 28.3576 26.9618C28.2656 26.9157 28.0593 26.8271 27.8973 26.7598C27.7352 26.696 27.529 26.6039 27.4369 26.5578C27.3449 26.5082 27.2049 26.4267 27.1239 26.37C27.0429 26.3169 26.9361 26.2566 26.8845 26.2389C26.8329 26.2177 26.6783 26.1291 26.5346 26.037C26.391 25.9413 26.2032 25.8244 26.1111 25.7712C26.036 25.7308 25.934 25.6809 25.7911 25.6273C25.7635 25.617 25.7415 25.6501 25.7612 25.672C25.8018 25.7181 25.8754 25.7925 25.9307 25.8421C25.9822 25.8917 26.1737 26.1149 26.3579 26.3381C26.5383 26.5614 26.7703 26.8661 26.8661 27.0114C26.9655 27.1602 27.0502 27.3303 27.0576 27.4011C27.065 27.4755 27.0465 27.5748 27.006 27.6492C26.9692 27.7165 26.8992 27.7874 26.8477 27.8051C26.7851 27.8263 26.6893 27.8157 26.5457 27.7767C26.391 27.7378 26.2879 27.6775 26.17 27.5712C26.0853 27.4862 25.9785 27.348 25.9343 27.2594C25.8938 27.1708 25.8496 27.0433 25.8386 26.9759C25.8202 26.8803 25.7465 26.7846 25.5034 26.5614C25.3304 26.3984 25.1131 26.2283 25.0173 26.1822C24.9068 26.1326 24.7485 25.998 24.5975 25.8385C24.4649 25.6933 24.2992 25.4984 24.2255 25.3992C24.1555 25.3035 24.0598 25.1547 24.0156 25.0732C23.9751 24.9881 23.9272 24.8216 23.9162 24.7011C23.8941 24.5239 23.9088 24.4247 23.9751 24.2121C24.0193 24.0669 24.1113 23.8436 24.1813 23.7161C24.2476 23.5885 24.3065 23.461 24.3065 23.4326C24.3065 23.4043 24.3176 23.3617 24.336 23.344C24.3544 23.3263 24.3876 23.2448 24.4097 23.1669C24.4281 23.1019 24.4516 22.9703 24.4803 22.7045C24.4867 22.6452 24.4152 22.6111 24.3728 22.6531C24.3065 22.7239 24.2255 22.8125 24.1961 22.855C24.1666 22.8976 24.0635 23.0358 23.9677 23.1633C23.8683 23.2909 23.7909 23.4078 23.7909 23.4255C23.7909 23.4397 23.7467 23.5354 23.6989 23.6381C23.6473 23.7409 23.5884 23.9499 23.5663 24.1165C23.5442 24.2759 23.5368 24.5062 23.5479 24.6303C23.5663 24.7968 23.5994 24.896 23.6989 25.0448C23.7688 25.1511 23.8278 25.2468 23.8278 25.2574C23.8278 25.2681 23.8867 25.3566 23.9567 25.4523C24.0266 25.5515 24.0856 25.6507 24.0856 25.6755C24.0856 25.6968 24.1371 25.7818 24.1997 25.8598C24.2623 25.9377 24.4612 26.2248 24.6454 26.4976C24.8295 26.7704 25.0394 27.1035 25.1094 27.2417C25.183 27.3799 25.2714 27.5287 25.3083 27.5783C25.3414 27.6279 25.3598 27.6775 25.3451 27.6917C25.3304 27.7059 25.3525 27.7236 25.393 27.7342C25.4335 27.7413 25.5661 27.7696 25.6876 27.7944C25.846 27.8263 25.9454 27.8689 26.0301 27.9468C26.0964 28.007 26.1737 28.1204 26.1995 28.1984C26.2326 28.2976 26.24 28.3897 26.2179 28.5102C26.1886 28.6569 26.0989 28.7798 26.0054 28.8965C26.0026 28.9 25.9998 28.9035 25.9969 28.9071C25.9343 28.985 25.8386 29.0771 25.787 29.1126C25.7097 29.1622 25.6471 29.1728 25.5145 29.1586C25.4151 29.148 25.3009 29.1161 25.2567 29.0878C25.2088 29.0594 25.1131 29.0204 25.0431 28.9992C24.9731 28.9779 24.859 28.9106 24.7963 28.8539C24.7301 28.7937 24.6269 28.6732 24.5717 28.5811C24.5128 28.4854 24.406 28.2693 24.3286 28.0921C24.2513 27.9149 24.174 27.7378 24.1555 27.6952C24.1371 27.6492 24.1003 27.5712 24.0782 27.5181C24.0524 27.4649 23.9235 27.2842 23.7909 27.1177C23.6584 26.9476 23.4558 26.7279 23.3416 26.6287C23.2238 26.5259 23.0765 26.4196 23.0176 26.3913C22.9586 26.3629 22.8666 26.3381 22.8187 26.3381C22.7671 26.3381 22.7008 26.3665 22.664 26.4019C22.6309 26.4338 22.5867 26.5011 22.5683 26.5507C22.5462 26.6003 22.5314 26.7811 22.5314 26.9582C22.5314 27.1354 22.5425 27.3799 22.5609 27.5074C22.5756 27.635 22.594 27.7484 22.6014 27.7661C22.613 27.7885 22.619 27.8144 22.6236 27.8392C22.6249 27.8464 22.6262 27.8541 22.6272 27.8618C22.6345 27.8901 22.6677 27.9787 22.7045 28.0567C22.7413 28.1346 22.8187 28.2551 22.8702 28.3224C22.9255 28.3897 23.0065 28.5279 23.0581 28.6236C23.1059 28.7228 23.1501 28.8256 23.1575 28.8539C23.1649 28.8822 23.1722 28.9708 23.1759 29.0488C23.1796 29.148 23.1538 29.226 23.0912 29.3181C23.0396 29.389 22.9402 29.5094 22.8702 29.5874C22.7819 29.6795 22.6603 29.7575 22.4946 29.8212C22.3252 29.885 22.1742 29.9169 22.0342 29.9169C21.9164 29.9169 21.7212 29.8886 21.5997 29.8531C21.4781 29.8141 21.3382 29.7645 21.2866 29.7362C21.2351 29.7078 21.1393 29.637 21.073 29.5803C21.0031 29.5236 20.9147 29.4102 20.8742 29.3323C20.8336 29.2543 20.7895 29.1197 20.7784 29.0311C20.7674 28.9425 20.7821 28.7937 20.8079 28.6945C20.8336 28.5988 20.8926 28.4393 20.9368 28.3401C20.981 28.2445 21.0325 28.1311 21.0473 28.0921C21.0657 28.0531 21.0804 27.9964 21.0878 27.9681C21.0951 27.9397 21.1246 27.8653 21.1541 27.8086C21.1835 27.7519 21.2351 27.5925 21.2682 27.4543C21.3161 27.27 21.3235 27.1318 21.305 26.9228C21.294 26.7669 21.2645 26.6003 21.2388 26.5543C21.213 26.5082 21.1651 26.4515 21.132 26.4303C21.0841 26.3984 21.0325 26.4125 20.8999 26.4799C20.8042 26.5295 20.6679 26.6251 20.5943 26.6925C20.5243 26.7598 20.3954 26.9192 20.307 27.0468C20.2223 27.1744 20.0971 27.4189 20.0308 27.596C19.9682 27.7732 19.854 28.0177 19.7804 28.1452C19.7067 28.2693 19.5741 28.4464 19.4821 28.535C19.39 28.6236 19.2537 28.7228 19.1801 28.7582C19.1027 28.7901 18.9738 28.8185 18.8928 28.8185C18.8118 28.8185 18.6829 28.7901 18.6092 28.7511C18.5319 28.7157 18.4067 28.6165 18.3293 28.5315C18.2103 28.4006 18.1152 28.251 18.0877 28.0763C18.0872 28.0733 18.0867 28.0703 18.0863 28.0673C18.0605 27.8795 18.0679 27.8122 18.1341 27.635C18.1857 27.4933 18.2704 27.3692 18.4067 27.2381C18.5098 27.1318 18.6166 27.0468 18.635 27.0468C18.6534 27.0468 18.6718 27.0291 18.6718 27.0114C18.6718 26.9937 18.8928 26.735 19.1617 26.4409C19.4268 26.1503 19.7288 25.8102 19.8246 25.6897C19.924 25.5692 20.0418 25.4204 20.0934 25.3637C20.1413 25.307 20.2591 25.1547 20.3549 25.0271C20.4506 24.8995 20.4948 24.8216 20.458 24.8499C20.4212 24.8783 20.3402 24.9314 20.2775 24.9669C20.2149 24.9988 20.1229 25.0448 20.0713 25.0696C20.0197 25.0909 19.8651 25.1618 19.7214 25.222C19.5778 25.2858 19.3716 25.3744 19.2611 25.4169C19.1506 25.4594 19.0254 25.5125 18.9849 25.5267C18.9444 25.5444 18.7197 25.6047 18.4877 25.6614C18.2557 25.7181 17.8579 25.7889 17.6038 25.8208C17.3497 25.8562 17.0367 25.8952 16.9041 25.9094C16.7715 25.9271 16.4585 25.9377 16.2044 25.9342C15.9502 25.9307 15.6777 25.9165 15.5967 25.9023C15.5157 25.8881 15.3242 25.8704 15.1732 25.8598C15.0222 25.8527 14.7717 25.8208 14.6208 25.7925C14.4698 25.7641 14.2672 25.7216 14.1714 25.7039C14.072 25.6826 13.9247 25.6507 13.84 25.633C13.7516 25.6153 13.5822 25.5692 13.4607 25.5303C13.3391 25.4913 13.2286 25.4665 13.2139 25.4736C13.1955 25.4807 13.1845 25.47 13.1845 25.4523C13.1845 25.4346 13.1734 25.424 13.1587 25.431C13.1441 25.4395 13.0901 25.4256 12.9471 25.3665C12.9095 25.351 12.874 25.3941 12.8972 25.4275C12.9451 25.4877 13.0003 25.5657 13.0261 25.594C13.0482 25.6224 13.1624 25.7535 13.2728 25.8881C13.387 26.0192 13.4791 26.1326 13.4791 26.1433C13.4791 26.1539 13.5012 26.1893 13.5306 26.2247C13.5601 26.2566 13.6743 26.3877 13.7811 26.5153C13.8916 26.6429 14.072 26.8555 14.1862 26.9937C14.2967 27.1318 14.4587 27.3444 14.5434 27.472C14.687 27.6846 14.6981 27.72 14.7018 27.9681C14.7055 28.1594 14.6907 28.2622 14.6465 28.3401C14.6097 28.3968 14.5139 28.5173 14.4256 28.6023C14.3409 28.6874 14.2046 28.7901 14.1236 28.8326C14.0057 28.8893 13.91 28.9071 13.6595 28.9071C13.3723 28.9071 13.3318 28.9 13.2102 28.8114C13.1366 28.7547 13.0629 28.6838 13.0482 28.6519C13.0371 28.6165 13.0077 28.5811 12.9929 28.5704C12.9745 28.5598 12.9488 28.5031 12.9377 28.4464C12.9303 28.3897 12.9119 28.2515 12.9009 28.1452C12.8898 28.0389 12.8825 27.8937 12.8861 27.8263C12.8898 27.759 12.8604 27.6315 12.8272 27.5429C12.7941 27.4543 12.6983 27.2629 12.6173 27.1177C12.5363 26.9724 12.4184 26.7988 12.3558 26.7314C12.2969 26.6641 12.1864 26.5578 12.1164 26.4905C12.0465 26.4267 11.9507 26.3736 11.9065 26.3736C11.8476 26.3736 11.8108 26.4019 11.7887 26.4728C11.7739 26.5259 11.7629 26.6783 11.7703 26.8165C11.7739 26.9547 11.7924 27.2311 11.8071 27.4366C11.8218 27.6421 11.8365 28.0708 11.8365 28.3933C11.8402 28.8964 11.8292 29.0027 11.7666 29.1657C11.7261 29.2685 11.6819 29.35 11.6671 29.35C11.6487 29.35 11.6266 29.3854 11.6156 29.4315C11.6008 29.474 11.5382 29.5767 11.4756 29.6618C11.402 29.7645 11.2915 29.8496 11.1589 29.9098C10.9858 29.9913 10.9158 30.0055 10.6617 29.9984C10.4739 29.9949 10.2898 29.9665 10.1572 29.9204C9.99146 29.8638 9.9178 29.8141 9.8331 29.6972C9.77049 29.6122 9.72261 29.5165 9.72261 29.4846C9.72261 29.4492 9.70788 29.4137 9.68579 29.4031C9.66369 29.3925 9.65264 29.272 9.66001 29.1197C9.66369 28.9744 9.67842 28.8539 9.69683 28.8539C9.71157 28.8539 9.71525 28.8362 9.7042 28.8185C9.69315 28.8008 9.73366 28.6838 9.79627 28.5633C9.8552 28.4393 9.92517 28.3082 9.95095 28.2693C9.97673 28.2303 10.0062 28.1913 10.0209 28.1807C10.032 28.17 10.0762 28.1063 10.1204 28.0389C10.1646 27.9716 10.1977 27.883 10.2014 27.8441C10.2014 27.8051 10.2161 27.7555 10.2382 27.7378C10.2603 27.72 10.2898 27.5358 10.3082 27.3303C10.3266 27.1248 10.3266 26.8803 10.3119 26.7811C10.2934 26.6712 10.2566 26.5862 10.2124 26.5578C10.1756 26.533 10.1056 26.5153 10.0541 26.5153C10.0025 26.5153 9.88098 26.5649 9.78154 26.6287C9.6821 26.6925 9.52006 26.8342 9.42062 26.9405C9.32119 27.0468 9.17756 27.224 9.10758 27.3303C9.03393 27.4366 8.96027 27.5287 8.94186 27.5358C8.92713 27.5393 8.9124 27.5748 8.9124 27.6137C8.9124 27.6527 8.8903 27.6846 8.8682 27.6846C8.84242 27.6846 8.75404 27.8015 8.6767 27.9433C8.59936 28.0815 8.46309 28.2941 8.38207 28.411C8.29737 28.5279 8.16479 28.7263 8.08745 28.8539C7.97696 29.0311 7.89594 29.1126 7.73758 29.2082C7.55712 29.3145 7.50188 29.3323 7.29196 29.3323C7.1336 29.3323 7.00838 29.311 6.92368 29.2685C6.85371 29.233 6.75795 29.1445 6.71008 29.0736C6.6622 29.0027 6.61432 28.8787 6.60328 28.8008C6.59223 28.7228 6.59223 28.6023 6.60328 28.535C6.61801 28.4677 6.6843 28.3401 6.75059 28.2515C6.83529 28.1452 6.94578 28.0567 7.09309 27.9893C7.21094 27.9326 7.34352 27.8724 7.38403 27.8511C7.42454 27.8299 7.5203 27.7874 7.59763 27.7484C7.67129 27.7129 7.7339 27.6669 7.7339 27.6492C7.7339 27.6315 7.75599 27.5925 7.78177 27.5712C7.80755 27.5464 7.90699 27.4153 7.99906 27.2771C8.09481 27.1389 8.1832 26.9972 8.19793 26.9582C8.21635 26.9192 8.29 26.7881 8.36734 26.6677C8.44468 26.5436 8.50729 26.4373 8.50729 26.4267C8.50729 26.4161 8.5699 26.3169 8.65092 26.207C8.72826 26.0936 8.82033 25.9448 8.84979 25.8775C8.88293 25.8102 8.97132 25.6188 9.05234 25.4523C9.12968 25.2858 9.22543 25.0413 9.25858 24.9031C9.29541 24.7649 9.32487 24.5346 9.32119 24.3893C9.32119 24.2228 9.29173 24.0385 9.24385 23.8932C9.19966 23.7657 9.12232 23.5921 9.07076 23.5035C9.0192 23.4149 8.90135 23.2377 8.8056 23.1031C8.71352 22.972 8.62146 22.8657 8.59936 22.8657C8.57726 22.8657 8.57358 22.9401 8.58831 23.0676C8.60304 23.181 8.64723 23.3936 8.68775 23.5389C8.72826 23.6842 8.82033 23.9747 8.89398 24.1873C8.97132 24.4106 9.02288 24.6338 9.02288 24.7365C9.02288 24.857 8.97869 24.9846 8.87189 25.2043C8.79086 25.3708 8.66197 25.5763 8.58831 25.6649C8.51465 25.7535 8.30105 25.9838 8.11323 26.1787C7.92909 26.3736 7.71917 26.6039 7.64919 26.6925C7.5829 26.7811 7.46874 26.9334 7.39508 27.0291C7.32511 27.1283 7.20726 27.3161 7.12992 27.4543C7.05258 27.5925 6.93841 27.7555 6.8758 27.8193C6.80951 27.8866 6.69166 27.9681 6.61064 28.007C6.51489 28.0531 6.38599 28.0779 6.24236 28.0779C6.12083 28.0779 5.96247 28.0567 5.89249 28.0283C5.82252 28 5.74518 27.9362 5.7194 27.8937C5.69731 27.8476 5.66784 27.7803 5.65679 27.7484C5.64575 27.7129 5.66784 27.6279 5.70835 27.5606C5.74886 27.4933 5.91459 27.3126 6.07663 27.1637C6.23868 27.0114 6.39336 26.8696 6.41545 26.8484C6.44123 26.8271 6.5775 26.6783 6.72113 26.5188C6.86476 26.3559 6.99734 26.1929 7.02312 26.1503C7.0489 26.1078 7.06731 26.0299 7.07099 25.9767C7.07099 25.92 7.0489 25.8704 7.0268 25.8633C7.00102 25.8562 6.90527 25.8881 6.8132 25.9307C6.72113 25.9767 6.55908 26.0688 6.45596 26.1397C6.34916 26.2106 6.25341 26.2673 6.24236 26.2673C6.23131 26.2673 6.04717 26.3913 5.82989 26.5401C5.60892 26.6889 5.29956 26.9086 5.13752 27.0255C4.97547 27.1425 4.82816 27.2523 4.80607 27.2665C4.78397 27.2807 4.63666 27.3976 4.47461 27.5252C4.31257 27.6563 4.04004 27.8405 3.86695 27.9397C3.57232 28.1133 3.53918 28.124 3.29611 28.124C3.08988 28.124 3.00885 28.1098 2.891 28.0389C2.80998 27.9929 2.68845 27.9078 2.62216 27.8476C2.55219 27.7874 2.47485 27.6952 2.44538 27.6421C2.41592 27.5854 2.39383 27.4755 2.39383 27.394C2.39383 27.2842 2.42329 27.1921 2.50431 27.0751C2.56323 26.9795 2.6774 26.8448 2.75842 26.774C2.83576 26.6996 2.99044 26.5933 3.09724 26.5366C3.20773 26.4834 3.33662 26.4232 3.38818 26.409C3.43974 26.3913 3.58706 26.3381 3.71964 26.2921C3.85222 26.246 4.15789 26.1078 4.40096 25.9873C4.64402 25.8704 4.92023 25.7145 5.01967 25.6472C5.11542 25.5799 5.25168 25.4488 5.32166 25.3566C5.39163 25.261 5.45056 25.1511 5.45056 25.1086C5.45056 25.0377 5.43583 25.0306 5.33271 25.0484C5.26642 25.059 5.09701 25.1157 4.95338 25.1688C4.80975 25.2255 4.60351 25.2964 4.49303 25.3318C4.38254 25.3673 4.27942 25.3921 4.26469 25.3885C4.24628 25.385 4.19104 25.3992 4.13579 25.4204C4.07687 25.4417 3.99953 25.4665 3.95902 25.47C3.91851 25.4771 3.71227 25.5125 3.49867 25.5515C3.28507 25.5905 3.0199 25.633 2.90942 25.6472C2.79893 25.6614 2.46748 25.7181 2.17286 25.7747C1.87823 25.8314 1.53205 25.9094 1.39947 25.9484C1.26689 25.9873 1.06801 26.0192 0.95753 26.0192C0.810218 26.0157 0.692368 25.9873 0.534007 25.9165C0.412475 25.8598 0.265162 25.7606 0.206237 25.6968C0.150995 25.6295 0.077339 25.5196 0.0515593 25.4523C0.0220969 25.385 0 25.2574 0 25.1688C0 25.0803 0.0368281 24.9385 0.077339 24.8499C0.11785 24.7614 0.206237 24.6373 0.268845 24.5736C0.335136 24.5062 0.44562 24.4247 0.515593 24.3893C0.585567 24.3539 0.718148 24.3043 0.810218 24.2795C0.917019 24.2511 1.24111 24.2334 1.71251 24.2299C2.32385 24.2263 2.49694 24.2121 2.74369 24.1519C2.90574 24.1129 3.10092 24.0527 3.17826 24.0208C3.19596 24.0131 3.21323 24.0061 3.22936 23.9998C3.29008 23.9761 3.36217 23.9672 3.42501 23.9499C3.47657 23.9358 3.64966 23.8755 3.81171 23.8153C3.97375 23.755 4.12106 23.6948 4.14316 23.6806C4.16526 23.6665 4.22418 23.6452 4.28311 23.631C4.33835 23.6204 4.5851 23.5141 4.83553 23.4007C5.08228 23.2838 5.31798 23.1633 5.35849 23.135C5.43214 23.0818 5.43214 23.0783 5.32166 22.9472C5.26273 22.8728 5.17803 22.7806 5.13752 22.7381C5.09701 22.6956 4.89814 22.5468 4.69558 22.405C4.49303 22.2668 4.22786 22.0932 4.10633 22.0224C3.9848 21.955 3.73437 21.7885 3.55391 21.6574C3.37345 21.5263 3.02727 21.2287 2.79157 20.9983C2.55587 20.768 2.29807 20.5023 2.22073 20.4031C2.14339 20.3074 2.03659 20.1621 1.98135 20.0842C1.92611 20.0062 1.83772 19.8468 1.78248 19.7298C1.72724 19.6129 1.66831 19.4605 1.6499 19.3932C1.63148 19.3259 1.57992 19.092 1.53941 18.8794C1.47681 18.5712 1.46207 18.3479 1.45839 17.8164C1.45839 17.2566 1.46944 17.0723 1.53941 16.718C1.58729 16.4841 1.65726 16.1723 1.69777 16.027C1.73829 15.8818 1.83036 15.6408 1.90401 15.4955C1.97767 15.3503 2.06606 15.1589 2.10657 15.0703C2.14708 14.9818 2.2502 14.8152 2.3349 14.6983C2.42329 14.5814 2.60006 14.39 2.73264 14.2731C2.86154 14.1562 3.06041 14.018 3.1709 13.9648C3.28138 13.9117 3.44343 13.8514 3.5355 13.8302C3.62757 13.8054 3.80802 13.7912 3.94061 13.7947C4.07319 13.8018 4.29415 13.8337 4.43778 13.8691C4.58141 13.9046 4.94601 14.0038 5.248 14.0924C5.55368 14.1845 5.95878 14.3085 6.15029 14.3723C6.3418 14.4325 6.51121 14.5034 6.52594 14.5211C6.54558 14.5447 6.55417 14.5447 6.55172 14.5211C6.55172 14.4999 6.57013 14.5034 6.59959 14.5247C6.62537 14.5495 6.71008 14.592 6.78742 14.6239C6.92 14.677 6.92736 14.677 7.01207 14.6026C7.09677 14.5211 7.09677 14.514 7.0489 14.2731C7.02312 14.1349 7.01207 13.9471 7.02312 13.8479C7.03416 13.7522 7.08204 13.5928 7.12623 13.4936C7.17043 13.3979 7.26986 13.2526 7.35089 13.1747C7.43191 13.0967 7.56081 13.001 7.63446 12.9621C7.7118 12.9231 7.77073 12.8806 7.77073 12.8664C7.77073 12.8558 7.79692 12.8453 7.87273 12.8324C7.97316 12.8155 8.02383 12.6995 7.96223 12.6184C7.88121 12.5156 7.78914 12.3668 7.75231 12.2888C7.71917 12.2109 7.63078 12.0408 7.56449 11.9097C7.49451 11.775 7.45032 11.6687 7.46874 11.6687C7.48347 11.6687 7.4761 11.6546 7.45032 11.6404C7.42823 11.6262 7.37298 11.4951 7.32879 11.3498C7.28828 11.2046 7.2183 10.9105 7.17411 10.6943C7.11887 10.4109 7.09677 10.1557 7.09677 9.75534C7.09677 9.45415 7.11519 9.07856 7.14097 8.92266C7.16674 8.76675 7.22935 8.47974 7.27723 8.28485C7.32879 8.08997 7.40613 7.85257 7.454 7.75336C7.50188 7.65769 7.59763 7.45572 7.66024 7.31044C7.72653 7.16516 7.83333 6.97737 7.89594 6.89233C7.99169 6.76477 8.00274 6.72933 7.96223 6.67973C7.94013 6.64784 7.90331 6.5876 7.88489 6.54862C7.86648 6.50964 7.81124 6.38917 7.75968 6.28287C7.7118 6.17657 7.64183 5.99941 7.605 5.89311C7.56817 5.78681 7.52766 5.68405 7.51661 5.66279C7.50188 5.64153 7.48715 5.57775 7.47978 5.52106C7.47242 5.46436 7.454 5.40058 7.43927 5.37932C7.42086 5.35806 7.38035 5.19153 7.3472 5.00727C7.30669 4.79113 7.2846 4.48286 7.2846 4.13916C7.2846 3.80963 7.30669 3.49073 7.34352 3.29939C7.37667 3.12576 7.41718 2.95923 7.43927 2.92734C7.45769 2.8919 7.4982 2.79269 7.52766 2.70411C7.56081 2.61552 7.60868 2.47733 7.64183 2.39584C7.67129 2.3108 7.74863 2.15135 7.81492 2.0415C7.88121 1.92812 7.99906 1.75095 8.08008 1.64819C8.15957 1.55177 8.25202 1.43039 8.29659 1.37187L8.30473 1.36118C8.34524 1.30803 8.51097 1.15213 8.67301 1.01748C8.83506 0.882833 9.06339 0.712753 9.18124 0.638343C9.29541 0.567476 9.50165 0.454089 9.64159 0.386766C9.77786 0.322986 10.0025 0.234403 10.1461 0.195426C10.2898 0.156449 10.4555 0.113929 10.5144 0.099756Z" fill="white"/>
<path d="M8.98479 3.94759C8.98479 2.37711 10.3076 1.10399 11.9395 1.10399C13.5713 1.10399 14.8941 2.37711 14.8941 3.94759C14.8941 5.51807 13.5713 6.79119 11.9395 6.79119C10.3076 6.79119 8.98479 5.51807 8.98479 3.94759Z" fill="#0057FF"/>
<path d="M17.6055 3.94759C17.6055 2.37711 18.9284 1.10399 20.5602 1.10399C22.192 1.10399 23.5149 2.37711 23.5149 3.94759C23.5149 5.51807 22.192 6.79119 20.5602 6.79119C18.9284 6.79119 17.6055 5.51807 17.6055 3.94759Z" fill="#0057FF"/>
</svg>
